HIERARCHY
ROOT Hips
{
	OFFSET 0.00000 0.00000 0.00000
	CHANNELS 6 Xposition Yposition Zposition Zrotation Yrotation Xrotation 
	JOINT LHipJoint
	{
		OFFSET 0 0 0
		CHANNELS 3 Zrotation Yrotation Xrotation
		JOINT LeftHip
		{
			OFFSET 1.53139 -1.83434 0.76626
			CHANNELS 3 Zrotation Yrotation Xrotation
			JOINT LeftKnee
			{
				OFFSET 2.56112 -7.03663 0.00000
				CHANNELS 3 Zrotation Yrotation Xrotation
				JOINT LeftAnkle
				{
					OFFSET 2.59983 -7.14299 0.00000
					CHANNELS 3 Zrotation Yrotation Xrotation
					JOINT LeftToe
					{
						OFFSET 0.13742 -0.37757 2.00054
						CHANNELS 3 Zrotation Yrotation Xrotation
						End Site
						{
							OFFSET 0.00000 -0.00000 1.02897
						}
					}
				}
			}
		}
	}
	JOINT RHipJoint
	{
		OFFSET 0 0 0
		CHANNELS 3 Zrotation Yrotation Xrotation
		JOINT RightHip
		{
			OFFSET -1.40122 -1.83435 0.76627
			CHANNELS 3 Zrotation Yrotation Xrotation
			JOINT RightKnee
			{
				OFFSET -2.54052 -6.98003 0.00000
				CHANNELS 3 Zrotation Yrotation Xrotation
				JOINT RightAnkle
				{
					OFFSET -2.63179 -7.23079 0.00000
					CHANNELS 3 Zrotation Yrotation Xrotation
					JOINT RightToe
					{
						OFFSET -0.24131 -0.66299 2.03908
						CHANNELS 3 Zrotation Yrotation Xrotation
						End Site
						{
							OFFSET -0.00000 -0.00000 1.07391
						}
					}
				}
			}
		}
	}
	JOINT lowerback
	{
		OFFSET 0 0 0
		CHANNELS 3 Zrotation Yrotation Xrotation
		JOINT Chest
		{
			OFFSET 0.01174 2.10302 -0.29778
			CHANNELS 3 Zrotation Yrotation Xrotation
			JOINT Chest2
			{
				OFFSET 0.00772 2.13227 -0.01247
				CHANNELS 3 Zrotation Yrotation Xrotation
				JOINT lowerneck
				{
					OFFSET 0 0 0
					CHANNELS 3 Zrotation Yrotation Xrotation
					JOINT Neck
					{
						OFFSET -0.09219 1.60848 0.31481
						CHANNELS 3 Zrotation Yrotation Xrotation
						JOINT Head
						{
							OFFSET 0.13974 1.65456 -0.31134
							CHANNELS 3 Zrotation Yrotation Xrotation
							End Site
							{
								OFFSET 0.04742 1.69515 -0.14578
							}
						}
					}
				}
				JOINT LeftCollar
				{
					OFFSET 0 0 0
					CHANNELS 3 Zrotation Yrotation Xrotation
					JOINT LeftShoulder
					{
						OFFSET 3.24909 1.02882 -0.23993
CHANNELS 3 Zrotation Xrotation Yrotation
						JOINT LeftElbow
						{
OFFSET 0 -5.329550 -0.000000
CHANNELS 3 Zrotation Xrotation Yrotation
							JOINT LeftWrist
							{
OFFSET 0 -3.692320 -0.000000
CHANNELS 3 Zrotation Xrotation Yrotation
								JOINT lhand
								{
									OFFSET 0 0 0
CHANNELS 3 Zrotation Xrotation Yrotation
									JOINT LFingers
									{
OFFSET 0 -0.536600 -0.000000
CHANNELS 3 Zrotation Xrotation Yrotation
										End Site
										{
OFFSET 0 -0.432620 -0.000000
										}
									}
								}
								JOINT LThumb
								{
OFFSET 0 0.000000 0.000000
CHANNELS 3 Zrotation Xrotation Yrotation
									End Site
									{
OFFSET 0 -0.439220 0.439220
									}
								}
							}
						}
					}
				}
				JOINT RightCollar
				{
					OFFSET 0 0 0
					CHANNELS 3 Zrotation Yrotation Xrotation
					JOINT RightShoulder
					{
						OFFSET -3.21387 0.93002 -0.34594
CHANNELS 3 Zrotation Xrotation Yrotation
						JOINT RightElbow
						{
OFFSET 0 -5.234310 0.000000
CHANNELS 3 Zrotation Xrotation Yrotation
							JOINT RightWrist
							{
OFFSET 0 -3.553010 -0.000000
CHANNELS 3 Zrotation Xrotation Yrotation
								JOINT rhand
								{
									OFFSET 0 0 0
CHANNELS 3 Zrotation Xrotation Yrotation
									JOINT RFingers
									{
OFFSET 0 -0.772520 -0.000000
CHANNELS 3 Zrotation Xrotation Yrotation
										End Site
										{
OFFSET 0 -0.622830 -0.000000
										}
									}
								}
								JOINT RThumb
								{
OFFSET 0 0.000000 0.000000
CHANNELS 3 Zrotation Xrotation Yrotation
									End Site
									{
OFFSET 0 -0.632340 0.632340
									}
								}
							}
						}
					}
				}
			}
		}
	}
}
MOTION
Frames: 10
Frame Time: 0.008333333333333333
-11.176600 17.873200 14.521800 7.482800 -87.519100 -8.868000 0.000000 0.000000 0.000000 -19.093300 -9.472900 -11.639000 4.800800 13.155900 39.954900 0.520800 -6.487200 -12.954700 0.856700 -5.902800 -16.502600 0.000000 0.000000 0.000000 24.921100 2.715700 -11.958200 -2.488900 -9.817800 28.388600 -0.429200 3.098100 -11.699900 -0.593400 -4.931900 13.714400 0.415700 1.458500 11.066300 0.993000 1.989300 1.287900 0.503900 0.960500 -4.878800 -11.363800 -3.557900 -19.565600 5.581700 -4.027100 34.326600 3.531800 -2.685700 15.817300 0.000000 0.000000 0.000000 0.560200 2.633000 -20.602800 18.119300 -28.309700 4.605700 19.459000 14.081100 -24.904200 0.000000 0.000000 0.000000 -7.125000 0.000000 0.000000 -10.947000 55.859700 2.942000 0.000000 0.000000 0.000000 -1.008100 -0.347400 16.565600 -15.812200 -25.265300 -3.565400 -14.073700 6.256500 -8.127200 0.000000 0.000000 0.000000 7.125000 0.000000 -0.000000 9.249100 21.644900 5.252700
-10.924005 17.990147 14.448483 6.627880 -87.089303 -8.675683 0.000000 0.000000 0.000000 -18.991444 -5.379771 -11.653589 7.392819 15.652473 50.342320 -0.056885 -7.435211 -3.759850 0.387277 -3.972887 -11.003509 0.000000 0.000000 0.000000 24.951649 1.780825 -10.479452 -1.948046 -8.756336 25.036407 -0.295268 3.318461 -9.656641 -0.626407 -5.064576 14.092752 0.871889 1.602637 10.628919 0.981790 2.234957 1.195819 0.209998 1.075883 -4.715603 -11.388448 -3.541365 -19.045538 5.425455 -4.108647 35.111037 3.471886 -2.798692 16.089165 0.000000 0.000000 0.000000 0.448362 4.107327 -19.961897 17.605134 -27.648605 4.364470 20.299946 15.273906 -25.082594 0.000000 0.000000 0.000000 -7.125000 0.000000 0.000000 -10.151778 56.212973 2.812493 0.000000 0.000000 0.000000 -0.851018 -0.763078 14.452247 -15.725870 -25.147482 -3.528668 -13.662690 7.142759 -8.530467 0.000000 0.000000 0.000000 7.125000 0.000000 0.000000 9.528731 21.252987 5.501703
-10.639848 18.054199 14.411048 6.938020 -86.392488 -9.192014 0.000000 0.000000 0.000000 -18.944548 -1.054523 -9.886547 9.024160 16.823213 56.173703 -0.159220 -7.704808 6.124908 0.628363 -5.062388 -14.088427 0.000000 0.000000 0.000000 24.787962 0.042098 -10.156193 -1.470146 -7.662153 21.692726 -0.155856 3.760071 -7.098624 -0.615705 -5.021681 13.970390 1.132826 1.461317 9.857369 1.122027 2.084616 0.914778 0.247142 1.002777 -4.575127 -11.481055 -3.354283 -18.891915 5.103445 -3.713455 35.373991 3.428518 -2.710688 16.133373 0.000000 0.000000 0.000000 -0.241648 5.540979 -18.154359 17.032271 -26.900313 4.101969 19.850316 15.699814 -25.047565 0.000000 0.000000 0.000000 -7.125000 0.000000 0.000000 -10.606030 56.084689 2.906953 0.000000 0.000000 0.000000 -1.537881 -0.158780 16.074497 -16.722938 -26.491126 -3.962938 -13.835912 5.688363 -8.206689 0.000000 0.000000 0.000000 7.125000 0.000000 0.000000 9.417382 21.574082 5.366228
-10.291699 18.090508 14.397754 12.397699 -85.533071 -14.729747 0.000000 0.000000 0.000000 -19.538848 2.578665 -6.043542 8.688574 16.602655 55.006008 -0.212755 -9.959168 9.746601 0.319241 -3.631792 -10.042997 0.000000 0.000000 0.000000 24.007693 -0.044243 -10.729692 -1.318491 -7.272728 20.525868 -0.091203 3.673692 -5.582788 -0.604413 -4.975471 13.838869 1.112785 1.316389 9.151977 1.052089 1.884276 0.726155 0.227161 0.908057 -4.376290 -11.456031 -3.263271 -18.946803 4.919689 -3.490662 35.332760 3.385038 -2.636047 16.095735 0.000000 0.000000 0.000000 -0.595621 6.049122 -16.762682 15.851145 -25.318248 3.582090 19.168015 16.850269 -25.441976 0.000000 0.000000 0.000000 -7.125000 0.000000 0.000000 -11.508071 56.340461 3.230513 0.000000 0.000000 0.000000 -1.769293 -0.130289 16.255294 -17.134245 -27.034226 -4.148274 -14.408300 4.385049 -8.558315 0.000000 0.000000 0.000000 7.125000 0.000000 0.000000 8.992146 21.192042 5.196588
-9.846222 18.066411 14.394570 19.691437 -84.063495 -22.087802 0.000000 0.000000 0.000000 -20.860166 5.398118 -0.812077 6.484043 14.880819 46.893509 0.240037 -7.932286 15.324704 0.084694 -1.873034 -5.154936 0.000000 0.000000 0.000000 22.491075 0.619758 -12.885436 -1.516382 -7.776332 22.036862 -0.074172 2.924030 -4.947620 -0.709035 -5.380901 14.998340 0.347005 1.072793 8.630025 0.905071 1.473612 0.788605 0.567292 0.720336 -4.035743 -11.498539 -3.200720 -19.223448 4.846116 -3.297092 35.368795 3.398938 -2.565756 16.158275 0.000000 0.000000 0.000000 -0.716345 5.541623 -17.036615 14.799803 -23.866483 3.144561 18.951513 18.026719 -24.906879 0.000000 0.000000 0.000000 -7.125000 0.000000 0.000000 -11.475341 55.759054 3.058594 0.000000 0.000000 0.000000 -2.072274 -0.528930 16.261016 -17.454213 -27.452662 -4.294691 -14.174405 4.139786 -8.007451 0.000000 0.000000 0.000000 7.125000 0.000000 0.000000 9.181199 21.762539 5.188267
-9.292989 17.975287 14.396965 19.102231 -81.594433 -21.455667 0.000000 0.000000 0.000000 -22.281015 5.331247 5.194641 3.699144 11.745291 34.841480 0.174835 -7.722746 14.139397 0.030790 -1.060826 -2.916762 0.000000 0.000000 0.000000 20.997498 1.056160 -16.299831 -1.893709 -8.640777 24.678168 -0.069294 1.515109 -4.681040 -0.798879 -5.704065 15.928254 -0.462585 0.435123 8.429747 0.910161 0.550386 0.772413 1.139546 0.277391 -3.939820 -11.255150 -3.081209 -19.163524 4.410821 -3.051459 35.428274 3.212644 -2.495275 16.132037 0.000000 0.000000 0.000000 -0.783235 4.803364 -18.667326 14.857093 -23.946643 3.167728 18.491230 17.661924 -25.426522 0.000000 0.000000 0.000000 -7.125000 0.000000 0.000000 -12.205408 56.185397 3.383441 0.000000 0.000000 0.000000 -2.323619 -0.827191 15.814565 -17.636318 -27.688850 -4.379029 -14.140869 4.165042 -8.548351 0.000000 0.000000 0.000000 7.125000 0.000000 0.000000 9.184609 21.214109 5.306096
-8.602279 17.881955 14.369992 17.355409 -77.908493 -19.504095 0.000000 0.000000 0.000000 -23.610074 3.175364 10.070655 2.142431 9.155778 26.284427 -0.407710 -11.331500 5.726106 0.802865 -5.718827 -15.970748 0.000000 0.000000 0.000000 19.004804 2.943736 -19.288199 -2.136934 -9.145568 26.251813 0.001236 -3.040410 -4.284664 -1.142856 -6.787897 19.088828 -1.941437 -0.358441 8.641945 0.969490 -0.646229 0.913684 2.175250 -0.294041 -3.865808 -12.201505 -3.239685 -19.221501 5.731084 -3.477573 35.850444 3.899196 -2.636480 16.462225 0.000000 0.000000 0.000000 -0.566112 2.811974 -21.729267 15.469281 -24.795686 3.420355 17.907150 16.080469 -25.359195 0.000000 0.000000 0.000000 -7.125000 0.000000 0.000000 -12.777185 55.998662 3.487867 0.000000 0.000000 0.000000 -2.769501 -0.961449 15.936807 -18.173834 -28.379230 -4.631566 -14.088758 3.787391 -8.280409 0.000000 0.000000 0.000000 7.125000 0.000000 0.000000 9.232206 21.488594 5.275989
-7.809809 17.848933 14.338673 18.188789 -74.421741 -19.643748 0.000000 0.000000 0.000000 -26.069364 0.433576 12.839938 1.087221 6.625188 18.610200 -0.342128 -11.382411 -0.992684 1.458543 -7.631945 -21.602162 0.000000 0.000000 0.000000 15.994559 5.874245 -21.500199 -2.073636 -9.017656 25.850634 0.224223 -8.376627 -2.589641 -1.451801 -7.616300 21.554630 -3.545215 -0.688619 9.190351 0.743073 -1.268246 1.064610 2.926702 -0.580368 -3.953316 -11.590712 -3.367646 -19.100543 4.816105 -3.502294 35.461906 3.368286 -2.659103 16.204459 0.000000 0.000000 0.000000 -0.536058 -0.621481 -23.447444 15.867739 -25.340878 3.589235 19.533210 17.404669 -24.694408 0.000000 0.000000 0.000000 -7.125000 0.000000 0.000000 -10.772720 55.663140 2.842806 0.000000 0.000000 0.000000 -2.529657 -0.661629 14.723192 -18.835669 -29.213911 -4.950378 -14.636275 2.924269 -8.096323 0.000000 0.000000 0.000000 7.125000 0.000000 0.000000 8.843976 21.652932 5.016413
-7.015297 17.851538 14.331641 19.623559 -73.239658 -20.015363 0.000000 0.000000 0.000000 -27.453565 1.483057 12.398862 0.511979 4.585157 12.729263 -0.181732 -9.755023 -3.046731 1.153350 -6.818627 -19.179161 0.000000 0.000000 0.000000 13.580090 6.534632 -23.646844 -1.651606 -8.099129 23.015543 0.279611 -10.526151 1.349166 -1.964637 -8.791897 25.146616 -3.980658 -0.341820 9.537941 0.358676 -0.883967 1.023493 2.730845 -0.379336 -4.219164 -11.401112 -3.254561 -18.989397 4.478836 -3.238925 35.263901 3.235493 -2.551769 16.037069 0.000000 0.000000 0.000000 -0.063515 -2.876709 -25.452860 17.094332 -26.981715 4.130195 19.717338 16.114895 -25.130356 0.000000 0.000000 0.000000 -7.125000 0.000000 0.000000 -10.784019 56.140780 2.971245 0.000000 0.000000 0.000000 -1.570917 0.172482 12.469733 -18.943766 -29.348706 -5.003253 -14.316377 2.617875 -8.580361 0.000000 0.000000 0.000000 7.125000 0.000000 0.000000 9.057596 21.173440 5.238762
-6.290915 17.875324 14.251518 19.917762 -72.131130 -19.449382 0.000000 0.000000 0.000000 -27.353584 2.322854 8.331263 0.523158 4.634916 12.870114 -0.422452 -13.408236 -2.575326 0.564283 -4.810898 -13.369994 0.000000 0.000000 0.000000 11.916863 4.661067 -25.823067 -1.665365 -8.130909 23.112518 0.087329 -5.309696 -1.027616 -0.143445 -2.422091 6.674515 -4.877732 -0.098391 10.071501 0.101167 -0.700369 0.948222 2.952063 -0.264629 -4.603190 -11.102350 -2.901871 -19.480563 4.451881 -2.705300 35.430391 3.282109 -2.284322 16.166974 0.000000 0.000000 0.000000 0.538677 -3.799084 -26.322005 18.569881 -28.880630 4.821381 20.505431 14.126725 -24.800469 0.000000 0.000000 0.000000 -7.125000 0.000000 0.000000 -9.807397 55.969387 2.657159 0.000000 0.000000 0.000000 -1.055553 1.409613 13.126260 -18.800371 -29.169829 -4.933211 -14.462713 2.009044 -7.192426 0.000000 0.000000 0.000000 7.125000 0.000000 0.000000 9.006228 22.580816 4.916644
